<svg width="412" height="342" viewBox="0 0 412 342" fill="none" xmlns="http://www.w3.org/2000/svg">
<path d="M-7 -16C-7 -21.5228 -2.52285 -26 3 -26H407C412.523 -26 417 -21.5228 417 -16V39.5V108.753C417 112.311 415.109 115.602 412.034 117.393L153.308 268.129C145.233 272.834 135.692 264.877 138.87 256.088L155.65 209.683C159.235 199.769 147.021 191.772 139.368 199.024L-7.85926 338.522C-14.8716 345.166 -26.2952 338.991 -24.5779 329.485L-16.3055 283.691C-16.1033 282.572 -15.7116 281.495 -15.1473 280.508L-5.85594 264.248C-0.728487 255.275 12.9776 261.164 9.99742 271.06C7.11465 280.632 -7 278.553 -7 268.556V223.5V148V-16Z" fill="#134F49"/>
</svg>
