<?xml version="1.0" encoding="UTF-8"?>
<svg version="1.1" xmlns="http://www.w3.org/2000/svg" width="2128" height="1189">
<path d="M0 0 C28.76641491 -0.04696665 57.53282398 -0.08210861 86.29926968 -0.10362434 C88.97205547 -0.10566365 91.64484122 -0.10774631 94.31762695 -0.10986328 C94.98185903 -0.1103879 95.64609111 -0.11091252 96.33045144 -0.11145304 C106.34702112 -0.11956015 116.36356835 -0.13360968 126.38012695 -0.15087891 C138.04097307 -0.17097321 149.7018018 -0.18375398 161.36266476 -0.18817699 C167.52240694 -0.19075756 173.68209942 -0.19671122 179.84182549 -0.21146011 C270.17051442 -0.41897233 347.27335917 11.52981239 414 77 C416.46289072 79.57358244 418.74319911 82.2457604 421 85 C421.73089844 85.84304688 422.46179688 86.68609375 423.21484375 87.5546875 C460.81640253 131.39347167 476.39130485 185.61956951 483 242 C483.103125 242.8156543 483.20625 243.63130859 483.3125 244.47167969 C490.76777911 311.80882566 473.49157352 381.44159067 431.57617188 435.03515625 C428.23438855 439.20099767 424.66252684 443.11414836 421 447 C419.93395894 448.26786437 418.87140456 449.53866927 417.8125 450.8125 C409.61210798 460.13367453 400.19070026 468.10432308 390.25 475.5 C389.48268555 476.07508301 388.71537109 476.65016602 387.92480469 477.24267578 C382.5608087 481.14928851 377.01446725 484.20565391 371 487 C372.96320205 480.64228933 375.41450314 474.69986804 378.25 468.6875 C382.61596461 459.23847193 386.7419687 449.69720195 390.76501465 440.09829712 C391.40983904 438.56097552 392.05696805 437.02461807 392.70666504 435.48934937 C396.20848614 427.2050223 399.48744293 418.89036208 402.34375 410.359375 C402.58736267 409.63232361 402.83097534 408.90527222 403.08197021 408.15618896 C413.23537856 377.08120504 411.64347272 342.174304 410 310 C409.94473145 308.88463867 409.88946289 307.76927734 409.83251953 306.62011719 C408.13527944 274.89663234 401.17957311 243.55329523 387 215 C386.65356445 214.29085449 386.30712891 213.58170898 385.95019531 212.85107422 C377.78072231 196.26173723 367.46139714 181.63800975 355 168 C354.25234375 167.18015625 353.5046875 166.3603125 352.734375 165.515625 C305.81793818 116.51401321 232.49364188 105.60871028 168 104 C156.25218371 103.76592147 144.54299703 104.00964632 132.8046875 104.5078125 C131.66249756 104.55494385 130.52030762 104.6020752 129.34350586 104.65063477 C126.56227217 104.76560989 123.78111049 104.88208877 121 105 C121.00222061 106.18896881 121.00444122 107.37793762 121.00672913 108.60293579 C121.03603393 124.9436139 121.05249075 141.28429967 121.0625 157.625 C121.0629343 158.31231799 121.06336861 158.99963598 121.06381607 159.70778179 C121.10112963 220.51453587 120.82256221 281.31922076 120.5 342.125 C120.49402628 343.2526455 120.48805257 344.380291 120.48189783 345.54210758 C120.32734 374.69477254 120.16682622 403.84740271 120 433 C135.64791815 432.96268083 151.29557728 432.90259831 166.94329166 432.81609726 C174.210326 432.77644417 181.47725421 432.74398252 188.74438477 432.72900391 C195.08526295 432.71591558 201.42590624 432.68877048 207.76665205 432.64538693 C211.11795837 432.62293112 214.46872512 432.60917819 217.82014656 432.60811615 C237.76418695 432.66365517 237.76418695 432.66365517 257 428 C257.84703995 427.71411514 258.6940799 427.42823029 259.56678772 427.13368225 C261.56075321 426.45036574 263.49471231 425.69167967 265.4375 424.875 C266.13431885 424.58423584 266.8311377 424.29347168 267.54907227 423.99389648 C292.4993715 413.14850367 312.48917381 393.38080753 328.94921875 372.21484375 C329.44583008 371.57748291 329.94244141 370.94012207 330.45410156 370.28344727 C331.43003895 369.02786752 332.40216015 367.76931059 333.37011719 366.50756836 C336.78032396 362.10983802 336.78032396 362.10983802 339 361 C341.03655423 369.86664653 341.36191423 378.57136188 341.3125 387.625 C341.31034485 388.33442749 341.3081897 389.04385498 341.30596924 389.77478027 C341.25381504 400.4715161 340.74497083 410.6114196 338 421 C337.82259277 421.73412109 337.64518555 422.46824219 337.46240234 423.22460938 C332.12776367 445.03373439 321.98055099 465.46383385 308 483 C307.26547607 483.9286084 307.26547607 483.9286084 306.51611328 484.87597656 C292.88187402 501.91315652 276.88151335 516.60399253 256 524 C255.16093518 524.32480882 254.32187037 524.64961763 253.45737934 524.98426914 C243.51053499 528.49521872 234.12001318 528.66597076 223.6706543 528.74389648 C221.77417218 528.77155603 219.87770876 528.80052356 217.98126507 528.83070278 C211.98764447 528.91782118 205.9941112 528.9628471 200 529 C198.55853253 529.01002792 198.55853253 529.01002792 197.08794451 529.02025843 C183.21059139 529.11525904 169.33377565 529.12053691 155.45617127 529.10139394 C149.99378743 529.09498697 144.53140253 529.09454331 139.0690155 529.09336853 C128.80335331 529.09030486 118.53770222 529.08216113 108.27204484 529.07201904 C96.55180423 529.06070024 84.83156298 529.05530843 73.11131823 529.05032361 C49.07420608 529.03997212 25.03710367 529.02247285 1 529 C0.83084618 477.62389347 0.66738984 426.24776962 0.50904435 374.87162864 C0.50002762 371.94646031 0.49100097 369.021292 0.48197412 366.0961237 C-0.10011185 177.34656689 -0.10011185 177.34656689 -0.0625 74.375 C-0.06207577 73.37741086 -0.06165154 72.37982173 -0.06121445 71.35200262 C-0.05091416 47.56799026 -0.03258624 23.78399273 0 0 Z " fill="#AD1D80" transform="translate(303,652)"/>
<path d="M0 0 C2.32436965 2.0866097 4.60015466 4.21508444 6.87109375 6.359375 C8.09641078 7.40556729 9.32557011 8.44727672 10.55859375 9.484375 C20.8983888 18.52118775 30.52617107 28.45690159 38.87109375 39.359375 C39.3201709 39.93204102 39.76924805 40.50470703 40.23193359 41.09472656 C66.45321632 74.53408012 83.52948944 113.14173103 92.12109375 154.671875 C92.27239746 155.39874512 92.42370117 156.12561523 92.57958984 156.87451172 C95.5007628 171.90287385 96.19475521 186.73101714 96.13183594 202.00830078 C96.12106037 205.11901107 96.13182457 208.22915022 96.14453125 211.33984375 C96.14321019 213.36198041 96.14064892 215.38411673 96.13671875 217.40625 C96.14076721 218.31389099 96.14481567 219.22153198 96.14898682 220.15667725 C96.09773323 227.35264848 95.10450356 234.27663126 93.87109375 241.359375 C82.37099398 241.59117886 70.87145059 241.76880775 59.36948967 241.87749672 C54.02836418 241.9296664 48.6888378 242.00040673 43.34863281 242.11376953 C38.19378111 242.22251148 33.04046599 242.28223287 27.88455582 242.30814743 C25.91876144 242.32661101 23.95305036 242.36266993 21.98791122 242.41667557 C6.55095426 242.82399804 6.55095426 242.82399804 2.41021729 239.21380615 C0.85558889 236.63083822 -0.12045378 234.19049446 -1.12890625 231.359375 C-7.25828496 222.40898709 -16.60832497 216.74837693 -27.12890625 214.359375 C-40.62826782 212.80899181 -52.3462654 214.84231276 -63.50390625 222.984375 C-72.48040104 230.73481196 -77.37812376 240.94623955 -79.00390625 252.546875 C-79.73561909 263.66268281 -76.53620829 273.39258769 -70.12890625 282.359375 C-69.55140625 283.24625 -68.97390625 284.133125 -68.37890625 285.046875 C-59.5214392 294.1503828 -48.79000891 298.68113399 -36.12890625 298.859375 C-23.81734331 298.67166768 -14.29708795 294.51876001 -5.12890625 286.359375 C-1.13319991 282.00487053 1.20662787 277.68830676 3.87109375 272.359375 C31.59109375 272.359375 59.31109375 272.359375 87.87109375 272.359375 C78.71918462 306.67903424 64.05977229 338.47196481 41.87109375 366.359375 C41.13246094 367.29007812 40.39382813 368.22078125 39.6328125 369.1796875 C32.49536574 378.03061457 24.91659369 386.39361556 16.93359375 394.484375 C16.36543945 395.06558105 15.79728516 395.64678711 15.21191406 396.24560547 C13.80379565 397.65669818 12.34156196 399.01337971 10.87109375 400.359375 C10.21109375 400.359375 9.55109375 400.359375 8.87109375 400.359375 C8.86744812 399.34539642 8.86380249 398.33141785 8.86004639 397.28671265 C8.82307761 387.72289666 8.76528433 378.1594021 8.68719101 368.59583092 C8.64771071 363.67927099 8.61552492 358.76289031 8.60009766 353.84619141 C8.58493475 349.09974452 8.55049564 344.35379042 8.50278473 339.60756302 C8.48796717 337.7983593 8.48005252 335.98908522 8.4792099 334.17982101 C8.47683958 331.64197227 8.44975608 329.10548466 8.41699219 326.56787109 C8.42202255 325.82268219 8.42705292 325.07749329 8.43223572 324.3097229 C8.33052095 319.20520968 7.09546076 316.28721098 3.87109375 312.359375 C-0.55214635 309.34352948 -4.86085745 308.44407695 -10.12890625 309.359375 C-13.65206392 310.66476808 -16.37071213 312.45817937 -18.81498718 315.36346436 C-20.7533254 319.78313391 -20.45452814 323.83595826 -20.33911133 328.60644531 C-20.32066666 330.15130363 -20.32066666 330.15130363 -20.30184937 331.72737122 C-20.27483103 333.96129246 -20.24177162 336.19514697 -20.20337868 338.42890167 C-20.1289253 343.18356881 -20.10787909 347.93799759 -20.08363628 352.69314194 C-20.03777062 361.54291895 -19.96971267 370.39121841 -19.81030273 379.23974609 C-19.70138629 385.39935617 -19.66097942 391.55616886 -19.66525841 397.71669769 C-19.65410454 400.05961491 -19.61768251 402.40255698 -19.55518532 404.74466705 C-19.0950334 422.58362012 -19.0950334 422.58362012 -22.4937706 427.22209167 C-26.2299071 430.69096464 -30.39815159 432.57933553 -35.12890625 434.359375 C-36.10281815 434.75368713 -37.07673004 435.14799927 -38.08015442 435.55426025 C-38.75624252 435.81994812 -39.43233063 436.08563599 -40.12890625 436.359375 C-40.13770561 434.61623268 -40.13770561 434.61623268 -40.14668274 432.83787537 C-40.20394132 421.87639241 -40.27671956 410.91510725 -40.36462116 399.95382595 C-40.40931348 394.31875989 -40.44857231 388.68376595 -40.4753418 383.04858398 C-40.50138585 377.60844753 -40.54179653 372.16858874 -40.59209251 366.72862434 C-40.60875368 364.65508546 -40.62027262 362.58149856 -40.62652016 360.50790215 C-40.63616922 357.59929295 -40.66423872 354.69139291 -40.6965332 351.78295898 C-40.69438057 350.50225525 -40.69438057 350.50225525 -40.69218445 349.19567871 C-40.7913169 342.86613138 -42.05502731 338.31066426 -45.75390625 333.046875 C-49.84241717 330.1418804 -54.35305186 328.89104104 -59.3515625 329.734375 C-63.91306307 331.2349808 -66.53370579 333.20705426 -69.12890625 337.359375 C-70.07574601 340.19989429 -70.26381801 341.98750468 -70.28712463 344.93412781 C-70.29691345 345.8722229 -70.30670227 346.81031799 -70.31678772 347.77684021 C-70.32254318 348.80398636 -70.32829865 349.83113251 -70.33422852 350.8894043 C-70.34412811 351.97248871 -70.35402771 353.05557312 -70.36422729 354.17147827 C-70.3958668 357.7588277 -70.42060951 361.34619039 -70.4453125 364.93359375 C-70.4658799 367.41795703 -70.48687632 369.9023168 -70.50828552 372.38667297 C-70.55787893 378.26205824 -70.60313856 384.13746445 -70.64630789 390.01290017 C-70.70054208 397.35824646 -70.76148837 404.7035333 -70.82226562 412.04882812 C-70.92987411 425.15230409 -71.03149968 438.25581943 -71.12890625 451.359375 C-73.01447005 452.15773237 -74.9013726 452.95292828 -76.78881836 453.74682617 C-77.83943954 454.1899968 -78.89006073 454.63316742 -79.97251892 455.08976746 C-84.46933417 456.89854121 -89.04082354 458.31917289 -93.69140625 459.671875 C-94.56603516 459.93548828 -95.44066406 460.19910156 -96.34179688 460.47070312 C-102.72403612 462.359375 -102.72403612 462.359375 -106.12890625 462.359375 C-106.20082753 396.63449661 -106.04231432 330.91341865 -105.68352413 265.18952608 C-105.62091513 253.70035343 -105.5614666 242.21116489 -105.50214863 230.72197485 C-105.38099202 207.26775679 -105.25588279 183.81356233 -105.12890625 160.359375 C-91.26890625 160.359375 -77.40890625 160.359375 -63.12890625 160.359375 C-60.81890625 164.649375 -58.50890625 168.939375 -56.12890625 173.359375 C-49.98336652 182.57768459 -38.80354228 188.12740565 -28.12890625 190.359375 C-16.25102829 191.37843345 -4.92987843 189.25974449 4.8125 182.109375 C12.75640575 175.35630142 18.99393613 166.83391452 20.87109375 156.359375 C21.82071332 141.52351509 19.89621329 129.99567447 9.87109375 118.359375 C1.60155486 110.20115682 -9.5578352 105.38691546 -21.19140625 105.109375 C-33.47310026 105.31613753 -44.02125367 109.3987779 -53.00390625 117.734375 C-56.32333268 121.23344098 -58.10431913 125.01026192 -60.12890625 129.359375 C-62.650724 130.62028388 -64.34859719 130.46626294 -67.17016602 130.44116211 C-68.22208633 130.4346312 -69.27400665 130.42810028 -70.35780334 130.42137146 C-71.50043137 130.40993607 -72.64305939 130.39850067 -73.8203125 130.38671875 C-76.23372248 130.37406348 -78.64713402 130.3617032 -81.06054688 130.34960938 C-84.86992234 130.32486522 -88.67921696 130.29698237 -92.48852539 130.26342773 C-96.16162612 130.23307153 -99.83462567 130.21539536 -103.5078125 130.19921875 C-104.6362709 130.18575912 -105.76472931 130.1722995 -106.92738342 130.15843201 C-115.76715516 130.13062212 -124.13852801 130.36762223 -131.12890625 136.359375 C-136.32600701 144.24463132 -135.27099587 154.28465219 -135.24916077 163.35595703 C-135.25001519 164.65727853 -135.25086962 165.95860003 -135.25174993 167.29935551 C-135.25397779 170.89559084 -135.24999707 174.4917962 -135.24497187 178.08802772 C-135.24064296 181.97204061 -135.24211553 185.8560519 -135.24287415 189.74006653 C-135.24339783 196.46415607 -135.24026723 203.1882359 -135.23463631 209.912323 C-135.22650031 219.63415706 -135.22390393 229.35598643 -135.22264832 239.07782352 C-135.2204611 254.85185246 -135.21380996 270.62587622 -135.2043457 286.39990234 C-135.19516305 301.7205401 -135.18808639 317.04117645 -135.18383789 332.36181641 C-135.18357517 333.30659222 -135.18331244 334.25136803 -135.18304176 335.22477341 C-135.1817367 339.96455891 -135.18047299 344.70434442 -135.17922986 349.44412994 C-135.16886753 388.74921525 -135.15125819 428.05429479 -135.12890625 467.359375 C-139.2166951 467.78393857 -143.30491006 468.20412059 -147.39353943 468.62051392 C-148.77994994 468.76229939 -150.16624556 468.90521353 -151.55241394 469.04934692 C-217.71538496 475.92206418 -285.9386551 454.36201191 -337.55908203 412.63671875 C-338.33614502 412.00443359 -338.33614502 412.00443359 -339.12890625 411.359375 C-339.66370605 410.92753906 -340.19850586 410.49570312 -340.74951172 410.05078125 C-355.1590173 398.32952118 -368.90669445 385.19167332 -380.12890625 370.359375 C-381.06571951 369.1622227 -382.00327383 367.96565009 -382.94140625 366.76953125 C-415.46009581 324.87065213 -437.2277395 270.78864327 -437.296875 217.3203125 C-437.3002034 216.39578278 -437.3035318 215.47125305 -437.30696106 214.51870728 C-437.31198887 212.57416271 -437.31437068 210.62960965 -437.31420898 208.68505859 C-437.31638527 205.7625448 -437.33455788 202.84041555 -437.35351562 199.91796875 C-437.35645272 198.01041793 -437.3584354 196.10286535 -437.359375 194.1953125 C-437.36656052 193.34681732 -437.37374603 192.49832214 -437.38114929 191.62411499 C-437.35146943 183.44908701 -436.24186623 175.44367013 -435.12890625 167.359375 C-423.66365179 167.05772701 -412.19934541 166.82696714 -400.73092651 166.68581676 C-395.40496373 166.61805635 -390.08172108 166.52622399 -384.75732422 166.37866211 C-379.61532059 166.23705247 -374.47592616 166.15961448 -369.3321228 166.12597084 C-367.37339175 166.10200942 -365.41479868 166.0552093 -363.45718384 165.98488426 C-348.47883365 165.46837043 -348.47883365 165.46837043 -344.54376221 168.63495255 C-341.55505679 172.14897307 -339.91781988 176.12763267 -338.12890625 180.359375 C-332.58387623 187.98631868 -322.32075208 193.4343524 -313.12890625 195.359375 C-297.73453095 196.29005577 -286.3468134 194.51228376 -274.12890625 184.359375 C-266.52851433 177.29234391 -261.68637534 167.05624393 -260.828125 156.74609375 C-260.78418745 142.87647237 -263.75065053 131.83455569 -273.50390625 121.546875 C-282.37787914 113.27617658 -293.54156854 108.91530545 -305.734375 109.1484375 C-315.38677312 109.99873032 -323.23136337 112.81176014 -331.12890625 118.359375 C-332.01578125 118.936875 -332.90265625 119.514375 -333.81640625 120.109375 C-339.19653408 125.34409397 -342.79535676 131.69227603 -346.12890625 138.359375 C-373.51890625 138.359375 -400.90890625 138.359375 -429.12890625 138.359375 C-416.55217634 88.05245534 -388.90193039 43.76287364 -351.12890625 8.359375 C-350.79890625 8.359375 -350.46890625 8.359375 -350.12890625 8.359375 C-350.12304001 9.20826797 -350.11717377 10.05716095 -350.11112976 10.93177795 C-350.0531138 18.95007959 -349.98098623 26.9681053 -349.89319134 34.98613834 C-349.84855278 39.10784494 -349.80928257 43.22945419 -349.7824707 47.35131836 C-349.75637234 51.33264069 -349.71592447 55.31358707 -349.66571999 59.29467583 C-349.64909526 60.80998479 -349.63755369 62.32535871 -349.63129234 63.84074593 C-349.62160283 65.97113142 -349.59348869 68.10056461 -349.5612793 70.23071289 C-349.55017624 71.4409462 -349.53907318 72.6511795 -349.52763367 73.89808655 C-348.97822193 78.66744126 -347.73161443 82.80836708 -344.19140625 86.234375 C-339.75964509 88.65169927 -335.12392588 88.93572342 -330.12890625 88.359375 C-326.82789494 86.96012555 -326.82789494 86.96012555 -324.12890625 85.359375 C-323.46890625 85.359375 -322.80890625 85.359375 -322.12890625 85.359375 C-319.98561441 80.12162298 -319.88083236 75.62094051 -319.96875 70.06860352 C-319.9747673 69.1523822 -319.98078461 68.23616089 -319.98698425 67.29217529 C-320.00014178 65.30986747 -320.01725621 63.32758278 -320.03790283 61.34533882 C-320.07660625 57.12641496 -320.07864406 52.90772721 -320.08270264 48.68865108 C-320.09043227 40.84075862 -320.11218076 32.99368034 -320.20068359 25.14624023 C-320.26092598 19.67938764 -320.27248036 14.21429716 -320.25198364 8.74717522 C-320.25325924 6.66792859 -320.27251593 4.58861069 -320.31027222 2.5097065 C-320.5914822 -13.62214476 -320.5914822 -13.62214476 -317.17871094 -18.33206177 C-314.56437439 -20.24366746 -312.13044689 -21.4368634 -309.12890625 -22.640625 C-307.25067179 -23.61357293 -305.37548755 -24.59243956 -303.50390625 -25.578125 C-302.04954213 -26.27398229 -300.59268451 -26.96479546 -299.12890625 -27.640625 C-299.12304001 -26.56178543 -299.11717377 -25.48294586 -299.11112976 -24.37141418 C-299.05391484 -14.20396921 -298.98115956 -4.03673838 -298.89319134 6.1304884 C-298.84846537 11.35756577 -298.80921406 16.58456481 -298.7824707 21.81176758 C-298.75646008 26.85639226 -298.71607335 31.90071581 -298.66571999 36.94515419 C-298.64903614 38.8696245 -298.63753132 40.79414691 -298.63129234 42.71867943 C-298.62166782 45.41458066 -298.59362834 48.10970886 -298.5612793 50.80541992 C-298.56271439 51.60095779 -298.56414948 52.39649567 -298.56562805 53.21614075 C-298.48842195 57.76609152 -297.96936374 60.75265456 -295.12890625 64.359375 C-290.34305729 67.66388975 -285.7691757 68.22491382 -280.12890625 67.359375 C-276.48026168 66.14316014 -273.08174539 64.94924523 -271.04450417 61.54998398 C-270.06056657 59.19586926 -269.86938216 57.58314645 -269.85043335 55.04400635 C-269.83926987 54.18867813 -269.82810638 53.33334991 -269.81660461 52.45210266 C-269.81336433 51.05703743 -269.81336433 51.05703743 -269.81005859 49.63378906 C-269.80001297 48.64809433 -269.78996735 47.6623996 -269.77961731 46.64683533 C-269.74873256 43.3895628 -269.73173531 40.13237267 -269.71484375 36.875 C-269.69613638 34.61626473 -269.67656329 32.35753649 -269.65615845 30.09881592 C-269.60478584 24.15423721 -269.56518746 18.20963582 -269.52801514 12.26495361 C-269.48800771 6.19871387 -269.43690048 0.13256885 -269.38671875 -5.93359375 C-269.28989868 -17.83587101 -269.20551328 -29.73820169 -269.12890625 -41.640625 C-267.68635818 -42.28745246 -266.24320223 -42.93292436 -264.79978943 -43.57781982 C-263.99619712 -43.93741161 -263.19260481 -44.2970034 -262.36466122 -44.66749191 C-259.99724707 -45.69793088 -257.62793774 -46.57252496 -255.1640625 -47.34375 C-254.34486328 -47.6015625 -253.52566406 -47.859375 -252.68164062 -48.125 C-251.85986328 -48.37765625 -251.03808594 -48.6303125 -250.19140625 -48.890625 C-249.34255859 -49.15875 -248.49371094 -49.426875 -247.61914062 -49.703125 C-241.40628986 -51.640625 -241.40628986 -51.640625 -239.12890625 -51.640625 C-239.12890625 48.679375 -239.12890625 148.999375 -239.12890625 252.359375 C-251.99890625 252.359375 -264.86890625 252.359375 -278.12890625 252.359375 C-280.43890625 248.399375 -282.74890625 244.439375 -285.12890625 240.359375 C-294.16874808 230.92071661 -305.32538383 225.4921148 -318.44140625 225.046875 C-331.16478717 225.31121117 -341.63971827 230.20392869 -350.796875 238.8125 C-358.12880591 246.81990193 -361.96685236 257.55116551 -362.50390625 268.359375 C-361.91673102 280.17627649 -357.16411156 292.60690238 -348.375 300.73046875 C-337.29814486 308.76359674 -324.90019025 312.96485094 -311.24609375 310.9296875 C-299.80430019 308.50988259 -289.88575151 303.03317536 -283.12890625 293.359375 C-282.73057587 292.51265732 -282.33224548 291.66593964 -281.92184448 290.79356384 C-280.5627247 287.94038801 -279.2599252 285.70134391 -277.12890625 283.359375 C-273.21462778 282.01109578 -269.54616999 282.25708205 -265.44921875 282.48828125 C-264.32248749 282.50954575 -263.19575623 282.53081024 -262.03488159 282.55271912 C-258.43814725 282.62841937 -254.84824315 282.77189028 -251.25390625 282.921875 C-247.66755674 283.03486693 -244.08153099 283.13342759 -240.49435425 283.21604919 C-238.26550586 283.27126774 -236.03702752 283.34589022 -233.80960083 283.44276428 C-226.78462798 283.66638031 -220.82729718 283.30809209 -215.10546875 278.74609375 C-214.65945313 278.18535156 -214.2134375 277.62460937 -213.75390625 277.046875 C-213.29242187 276.49386719 -212.8309375 275.94085938 -212.35546875 275.37109375 C-209.67640317 270.97708491 -208.87895258 266.62940437 -208.86719322 261.54544258 C-208.85972773 260.40139273 -208.85226224 259.25734288 -208.84457052 258.07862484 C-208.84650525 256.8315437 -208.84843999 255.58446255 -208.85043335 254.29959106 C-208.8454281 252.9538492 -208.83955163 251.60811035 -208.83288062 250.26237571 C-208.81709426 246.57040486 -208.81365069 242.87851014 -208.81223202 239.18650961 C-208.80853559 235.20291576 -208.79337889 231.21936356 -208.77961731 227.23579407 C-208.7573483 220.33597373 -208.74233285 213.43616822 -208.73225021 206.53631973 C-208.71766194 196.5603142 -208.69212468 186.5843603 -208.66391893 176.60838507 C-208.61845366 160.42285633 -208.58183774 144.23732015 -208.55078125 128.05175781 C-208.52059463 112.3294138 -208.48624384 96.60708798 -208.44628906 80.88476562 C-208.44382751 79.9155684 -208.44136597 78.94637118 -208.43882982 77.94780435 C-208.4264552 73.08560482 -208.41399867 68.22340551 -208.40150142 63.36120629 C-208.29793758 23.02728783 -208.20873301 -17.30665302 -208.12890625 -57.640625 C-149.82484225 -86.792657 -43.50436497 -37.42622929 0 0 Z M-119.8046875 7.8515625 C-128.55025578 17.28795718 -133.71399017 29.06378467 -133.37890625 42.02734375 C-133.18902378 44.37724283 -133.18902378 44.37724283 -132.50390625 46.66015625 C-131.87415573 49.19227815 -131.59041425 50.79361898 -132.12890625 53.359375 C-135.33864511 56.97111638 -139.20157025 59.57629986 -143.12890625 62.359375 C-144.93333676 63.80188535 -146.72533347 65.2601008 -148.50390625 66.734375 C-149.40882813 67.47429687 -150.31375 68.21421875 -151.24609375 68.9765625 C-154.95184048 72.03957809 -158.62050028 75.14489661 -162.27709961 78.26635742 C-165.8121208 81.27626584 -169.41975735 84.17210836 -173.06640625 87.046875 C-179.62422566 92.40195023 -184.47878356 98.20366069 -187.12890625 106.359375 C-187.39639309 109.22419344 -187.52295628 111.86106041 -187.4896698 114.71800232 C-187.49223307 115.53252666 -187.49479635 116.347051 -187.4974373 117.1862579 C-187.50235766 119.90098809 -187.48591137 122.61515549 -187.46948242 125.32983398 C-187.46863577 127.28158047 -187.46911203 129.23332792 -187.47080994 131.18507385 C-187.47166983 136.47383088 -187.4540449 141.76238333 -187.43308806 147.05109286 C-187.41432036 152.58174522 -187.41257074 158.11240238 -187.40901184 163.64308167 C-187.39969167 174.11185365 -187.3750782 184.58053154 -187.34496337 195.04926211 C-187.31141855 206.96937786 -187.29493313 218.88949814 -187.27987707 230.80964935 C-187.24852867 255.32627672 -187.19576865 279.84282058 -187.12890625 304.359375 C-188.07776703 304.66889099 -189.02662781 304.97840698 -190.00424194 305.29730225 C-192.5348764 306.15746437 -194.57504898 307.02873584 -196.85546875 308.375 C-197.81453125 308.92027344 -197.81453125 308.92027344 -198.79296875 309.4765625 C-200.11291217 310.23907962 -201.42797518 311.01010102 -202.73828125 311.7890625 C-207.5781203 314.51269662 -207.5781203 314.51269662 -210.33203125 313.74609375 C-210.925 313.28847656 -211.51796875 312.83085937 -212.12890625 312.359375 C-212.79148437 311.96878906 -213.4540625 311.57820313 -214.13671875 311.17578125 C-214.83539062 310.76199219 -215.5340625 310.34820312 -216.25390625 309.921875 C-226.73940455 304.16846847 -237.61834683 302.58299644 -249.44140625 305.05078125 C-262.31866763 308.97637496 -272.23376916 317.0022072 -278.83984375 328.6953125 C-284.49917234 340.39125826 -284.54429886 352.13831203 -280.38671875 364.3203125 C-278.51595403 368.84035893 -276.21434379 372.57466773 -273.12890625 376.359375 C-272.30132813 377.38998047 -272.30132813 377.38998047 -271.45703125 378.44140625 C-264.13867897 386.6198213 -253.44609129 391.87526623 -242.52734375 392.59765625 C-230.41817162 392.92951724 -221.11002088 390.49189718 -211.12890625 383.359375 C-210.11828125 382.658125 -209.10765625 381.956875 -208.06640625 381.234375 C-201.64139097 375.66953936 -197.6461014 367.33049296 -195.12890625 359.359375 C-194.94199219 358.77542969 -194.75507812 358.19148438 -194.5625 357.58984375 C-193.94513405 354.41402432 -194.0364887 351.34047056 -194.06640625 348.109375 C-194.07542969 346.84609375 -194.08445312 345.5828125 -194.09375 344.28125 C-194.10535156 343.31703125 -194.11695313 342.3528125 -194.12890625 341.359375 C-193.49597656 341.12734375 -192.86304688 340.8953125 -192.2109375 340.65625 C-187.95732723 338.86639118 -183.90404124 336.74703315 -179.81640625 334.609375 C-178.59147461 333.98289062 -178.59147461 333.98289062 -177.34179688 333.34375 C-166.84842618 327.93032275 -166.84842618 327.93032275 -159.19140625 319.234375 C-158.62099609 318.27144531 -158.62099609 318.27144531 -158.0390625 317.2890625 C-155.89855888 312.75082736 -156.00878357 308.34323062 -156.06489563 303.40429688 C-156.06983557 302.59671905 -156.07477552 301.78914122 -156.07986516 300.95709133 C-156.09126008 299.18682684 -156.10499113 297.41657624 -156.12074089 295.64634514 C-156.15526555 291.75614301 -156.17853272 287.86589342 -156.20272768 283.9756155 C-156.21590849 281.8804153 -156.22969464 279.78521883 -156.24404109 277.69002628 C-156.3347187 264.24253849 -156.35263078 250.79486483 -156.37496817 237.34712029 C-156.39729618 224.25321596 -156.44208922 211.16034143 -156.55737305 198.06689453 C-156.64881879 187.6654588 -156.69066914 177.26515793 -156.6745078 166.86331367 C-156.66778592 161.36112561 -156.68575572 155.8615564 -156.76375771 150.35986328 C-156.83661791 145.17779505 -156.84327617 139.99974463 -156.80052185 134.81738091 C-156.79637268 132.92272029 -156.8159015 131.02782622 -156.86170006 129.13371468 C-157.20350019 114.13061683 -157.20350019 114.13061683 -152.10063744 108.65060425 C-149.21530596 105.99294661 -146.13676755 103.71747054 -142.87357271 101.54751396 C-140.24505131 99.7574591 -137.86907715 97.72466172 -135.44140625 95.671875 C-133.67113002 94.23368899 -131.90029187 92.79619438 -130.12890625 91.359375 C-128.16999122 89.75591872 -126.21165331 88.15175711 -124.25390625 86.546875 C-122.54752247 85.14865904 -120.83927536 83.75271307 -119.12890625 82.359375 C-118.28328125 81.61042969 -117.43765625 80.86148438 -116.56640625 80.08984375 C-114.12890625 78.359375 -114.12890625 78.359375 -112.05859375 78.1171875 C-111.04152344 78.29894531 -111.04152344 78.29894531 -110.00390625 78.484375 C-109.22402344 78.60941406 -108.44414063 78.73445313 -107.640625 78.86328125 C-105.9340841 79.20034298 -104.22837563 79.54164132 -102.5234375 79.88671875 C-89.00085207 82.56001486 -77.26490369 82.10075558 -65.31640625 74.546875 C-63.89937032 73.51282175 -62.50207722 72.45100608 -61.12890625 71.359375 C-60.51402344 70.88113281 -59.89914062 70.40289062 -59.265625 69.91015625 C-51.89201509 63.4194176 -46.58584406 52.46275865 -45.85546875 42.70703125 C-45.40810527 29.44922798 -47.98450534 18.8653693 -56.90234375 8.578125 C-65.88874229 -0.37674231 -76.57588478 -5.01934002 -89.21875 -5.671875 C-101.39127297 -5.54116334 -111.0901817 -0.43884648 -119.8046875 7.8515625 Z " fill="#962083" transform="translate(1026.12890625,69.640625)"/>
<path d="M0 0 C0.9061225 0.00092179 1.81224501 0.00184359 2.74582577 0.00279331 C3.78214138 0.00141865 4.81845699 0.00004398 5.88617611 -0.00137234 C7.60599445 0.00402058 7.60599445 0.00402058 9.3605566 0.00952244 C10.56039181 0.00937641 11.76022701 0.00923038 12.99642086 0.00907993 C16.29586749 0.00965889 19.59525222 0.01468805 22.89468789 0.02165389 C26.33935856 0.0278881 29.78402997 0.02849128 33.22870541 0.0296793 C39.75584288 0.03279242 46.28296369 0.04100554 52.81009382 0.05102879 C60.23923575 0.06219053 67.66837845 0.06770053 75.09752667 0.07272422 C90.38369931 0.08318817 105.6698553 0.10078723 120.95601559 0.12304783 C128.93314735 20.03276864 136.88448384 39.9526809 144.81539059 59.88086033 C145.24845013 60.9690028 145.68150967 62.05714527 146.12769222 63.17826176 C148.38473664 68.8496605 150.64159907 74.52113164 152.8983984 80.19262791 C171.89094803 127.92230816 171.89094803 127.92230816 190.95601559 175.62304783 C202.9354066 205.52915078 214.84546837 235.46278451 226.7577734 265.39566135 C238.39575467 294.63888018 250.04258144 323.87837597 261.74609661 353.09543324 C269.77706471 373.14427015 277.7793737 393.20438622 285.76460934 413.27148533 C286.24145798 414.46972179 286.71830662 415.66795826 287.20960522 416.90250492 C292.00291932 428.94734249 296.79528127 440.99255713 301.58425617 453.03912067 C303.37563297 457.54476259 305.16777695 462.05009898 306.96024609 466.55530643 C307.82509864 468.72922066 308.68972267 470.90322582 309.55411053 473.07732487 C313.70597231 483.51805097 317.86872663 493.95329086 322.12837887 504.35058689 C322.44337495 505.12035421 322.75837103 505.89012154 323.08291245 506.68321514 C324.50789126 510.16276145 325.93881047 513.6396331 327.38141537 517.11190891 C327.86115307 518.27783573 328.34089077 519.44376255 328.83516598 520.64502048 C329.24891979 521.64135502 329.66267361 522.63768955 330.08896542 523.66421604 C330.95601559 526.12304783 330.95601559 526.12304783 330.95601559 529.12304783 C291.02601559 529.12304783 251.09601559 529.12304783 209.95601559 529.12304783 C205.93414059 518.39804783 201.91226559 507.67304783 197.76851559 496.62304783 C194.86789719 488.88858849 194.86789719 488.88858849 191.96727657 481.15412998 C187.11031162 468.20298031 182.25413928 455.2515358 177.40132809 442.29882908 C168.07070068 417.39700401 158.71293215 392.50558264 149.33101559 367.62304783 C140.371385 343.86049158 131.43271733 320.09018455 122.51851559 296.31054783 C122.24021152 295.56816742 121.96190746 294.82578701 121.67516994 294.06091022 C117.43446769 282.7486582 113.19511094 271.43590209 108.95601559 260.12304783 C104.37344262 247.8935961 99.79036007 235.66433561 95.20601559 223.43554783 C94.78928837 222.3238806 94.78928837 222.3238806 94.36414242 221.18975544 C82.60371016 189.81823097 70.79103295 158.46650489 58.95601559 127.12304783 C50.60267141 148.88938953 42.33584572 170.68621524 34.16446209 192.52148151 C32.71710148 196.38812968 31.26825402 200.25422067 29.81954098 204.12036228 C27.39944644 210.57921107 24.97996291 217.03828834 22.56099606 223.49755955 C17.12132118 238.02265946 11.67845386 252.54656255 6.23361111 267.06972599 C5.67239052 268.56669307 5.11118759 270.06366677 4.5500021 271.56064701 C-4.22629535 294.9715288 -13.03040025 318.37181354 -21.85194492 341.76567936 C-33.22246322 371.91969484 -44.54355215 402.09211308 -55.85158634 432.2696085 C-59.78348409 442.76217098 -63.71858096 453.25353033 -67.6552496 463.7443037 C-69.52609077 468.73000366 -71.39663869 473.71581365 -73.26722145 478.70161057 C-74.76081151 482.68249084 -76.25458764 486.66330108 -77.74878788 490.64395237 C-79.13981457 494.34976681 -80.53031421 498.0557786 -81.920434 501.76193333 C-82.4275389 503.11362135 -82.93483465 504.4652378 -83.44234562 505.81677341 C-84.1420277 507.68014459 -84.84094302 509.54380363 -85.53983402 511.40747166 C-85.92916615 512.44495045 -86.31849827 513.48242924 -86.71962833 514.55134678 C-88.51749821 519.40008332 -90.27672063 524.26307243 -92.04398441 529.12304783 C-131.97398441 529.12304783 -171.90398441 529.12304783 -213.04398441 529.12304783 C-211.91899089 522.37308668 -211.91899089 522.37308668 -210.58063602 519.05940342 C-210.1292363 517.92891244 -210.1292363 517.92891244 -209.66871738 516.77558327 C-209.33767757 515.964458 -209.00663776 515.15333273 -208.66556644 514.31762791 C-208.31411312 513.44256564 -207.9626598 512.56750338 -207.60055637 511.66592407 C-206.42338042 508.73912533 -205.23756927 505.81590449 -204.05179691 502.89257908 C-203.20737251 500.79796928 -202.36350385 498.70313536 -201.52015018 496.60809422 C-199.70143621 492.09335659 -197.87893562 487.58017311 -196.0535059 483.06814671 C-193.13070417 475.84342482 -190.21657069 468.61522626 -187.30375004 461.38647556 C-183.49401089 451.93364563 -179.68170748 442.48185611 -175.86675024 433.03113091 C-166.84812872 410.68908866 -157.8550471 388.33678261 -148.86898899 365.98162556 C-147.53554547 362.66455515 -146.20180628 359.34760374 -144.86802006 356.03067112 C-130.45250224 320.1783532 -116.13800093 284.28645193 -101.86252689 248.37817478 C-87.49163476 212.23161701 -73.02079874 176.12616695 -58.4944849 140.04181004 C-48.66940154 115.6347527 -38.87021005 91.21796003 -29.15335941 66.76757908 C-28.71581711 65.66673292 -28.2782748 64.56588676 -27.82747364 63.43168163 C-23.63689858 52.88710703 -19.45009546 42.34104813 -15.2716608 31.79165649 C-13.77354616 28.01042968 -12.27355386 24.22994949 -10.77320957 20.4496069 C-9.74716049 17.86197212 -8.72399393 15.27320999 -7.7009058 12.68440342 C-7.09130349 11.1481006 -6.48155167 9.61185709 -5.87162113 8.07568455 C-5.59668386 7.37748883 -5.3217466 6.67929312 -5.0384779 5.95993996 C-2.73083422 0.16439618 -2.73083422 0.16439618 0 0 Z " fill="#A91D81" transform="translate(1773.043984413147,8.876952171325684)"/>
<path d="M0 0 C124.41 0 248.82 0 377 0 C377 32.67 377 65.34 377 99 C289.22 99 201.44 99 111 99 C111.33 110.22 111.66 121.44 112 133 C112.10327817 141.51908946 112.18219216 150.03414763 112.20532227 158.55322266 C112.21495569 160.89099275 112.22496839 163.2287613 112.23532104 165.56652832 C112.26187348 171.80360298 112.28316839 178.04068474 112.30332303 184.27778292 C112.32335455 190.22800557 112.34737262 196.17821185 112.37124526 202.12842004 C112.41852829 213.94937127 112.46184231 225.77033349 112.50268555 237.59130859 C112.54179153 248.90772551 112.58326838 260.22413 112.62768555 271.54052734 C112.63040982 272.23473308 112.63313409 272.92893881 112.63594092 273.64418109 C112.64691684 276.43985667 112.65789611 279.23553224 112.66888306 282.03120778 C112.71458207 293.67871912 112.75823583 305.32623826 112.8016727 316.97375822 C112.81138624 319.57152438 112.82116141 322.16929031 112.83100247 324.76705599 C112.85921556 332.21576318 112.886318 339.66447295 112.91189194 347.1131897 C112.9196171 349.32470188 112.92764426 351.53621305 112.93608284 353.74772263 C113.03874176 380.83183045 113 407.91553496 113 435 C204.74 435 296.48 435 391 435 C391 465.69 391 496.38 391 528 C341.33332627 528.02202513 291.66665713 528.04049708 241.99997992 528.05106533 C236.14297163 528.05231611 230.28596335 528.05361043 224.42895508 528.05493164 C223.26287763 528.05519395 222.09680018 528.05545626 220.89538705 528.05572652 C201.98793765 528.06008371 183.08049128 528.06797153 164.17304368 528.0771528 C144.78767631 528.08648798 125.40231053 528.09205532 106.01694101 528.09408849 C94.04485512 528.095464 82.07277779 528.0998161 70.10069453 528.10791647 C61.90288966 528.11318226 53.70508924 528.11480468 45.5072828 528.11350138 C40.77005471 528.11285773 36.03284161 528.11387845 31.29561615 528.11920547 C26.96618304 528.12403868 22.63677513 528.12433917 18.30734091 528.12089889 C16.73398174 528.12047312 15.16062105 528.12176952 13.5872649 528.12488318 C11.46275241 528.12884599 9.33833315 528.12676414 7.21382236 528.12304783 C6.02947465 528.12342755 4.84512694 528.12380727 3.62488991 528.1241985 C1 528 1 528 0 527 C-0.09899979 524.20745648 -0.13175306 521.43962303 -0.12304783 518.64659786 C-0.12420167 517.75567109 -0.12535552 516.86474431 -0.12654433 515.94681975 C-0.12921886 512.92212417 -0.124682 509.89748043 -0.12025452 506.87278748 C-0.12069005 504.6981545 -0.12156462 502.52352158 -0.12284368 500.34888893 C-0.1250922 494.34251225 -0.12106251 488.33615322 -0.11606562 482.32977879 C-0.11176639 475.86415996 -0.11320717 469.39854222 -0.1139679 462.93292236 C-0.11466667 451.72061879 -0.11137794 440.50832066 -0.10573006 429.2960186 C-0.09981962 417.53241384 -0.09596544 405.76881139 -0.09487724 394.00520515 C-0.0948085 393.27466914 -0.09473976 392.54413313 -0.09466894 391.79145966 C-0.09433062 388.08166495 -0.09402923 384.37187024 -0.09374207 380.66207553 C-0.09163983 354.36333849 -0.08489741 328.06460447 -0.07543945 301.76586914 C-0.06625991 276.21183284 -0.0591908 250.65779738 -0.05493164 225.10375977 C-0.054661 223.49774351 -0.05439029 221.89172725 -0.05411953 220.28571099 C-0.05193086 207.23683981 -0.04988824 194.18796861 -0.04788104 181.1390974 C-0.03848797 120.7593954 -0.01841905 60.37970129 0 0 Z " fill="#A41E81" transform="translate(834,652)"/>
<path d="M0 0 C16.23797016 -0.30440443 32.47500775 -0.53327006 48.71514606 -0.67355824 C56.25679 -0.74044477 63.79665604 -0.83153379 71.3371582 -0.98071289 C77.91374276 -1.11075951 84.48903954 -1.19426382 91.06687421 -1.22315043 C94.54696694 -1.24002591 98.02337777 -1.27932598 101.5022831 -1.37449074 C124.35114357 -1.9758478 124.35114357 -1.9758478 130.10766602 2.84809875 C133.02692207 5.93402016 135.00231624 9.26662084 137 13 C137.97632461 14.28113025 138.97814093 15.54402746 140.0234375 16.76953125 C140.79945313 17.77371094 141.57546875 18.77789063 142.375 19.8125 C146.3528485 24.92853581 150.40113791 29.98043146 154.5 35 C158.54991812 39.96224925 162.55785579 44.9516933 166.5 50 C172.55913545 57.75436897 178.7773288 65.37668065 185 73 C191.68097011 81.18477581 198.3336976 89.3840373 204.83642578 97.71142578 C208.33793972 102.18480915 211.90825692 106.59885003 215.5 111 C220.00759973 116.52339685 224.44842642 122.09184436 228.8359375 127.7109375 C232.33776247 132.18436708 235.90811164 136.59867202 239.5 141 C244.00759973 146.52339685 248.44842642 152.09184436 252.8359375 157.7109375 C256.87566633 162.87151595 261.01144049 167.95096403 265.15527344 173.02807617 C268.73384318 177.42039266 272.26132067 181.84851744 275.75 186.3125 C279.62693327 191.27149653 283.56423009 196.17297445 287.5625 201.03515625 C295.08404499 210.18395857 302.54601604 219.3751997 309.83544922 228.71020508 C313.3373184 233.18397259 316.90792696 237.59844571 320.5 242 C325.00759973 247.52339685 329.44842642 253.09184436 333.8359375 258.7109375 C337.33776247 263.18436708 340.90811164 267.59867202 344.5 272 C349.00759973 277.52339685 353.44842642 283.09184436 357.8359375 288.7109375 C361.33776247 293.18436708 364.90811164 297.59867202 368.5 302 C372.54975959 306.96238148 376.55785296 311.95168967 380.5 317 C386.55913545 324.75436897 392.7773288 332.37668065 399 340 C405.68097011 348.18477581 412.3336976 356.3840373 418.83642578 364.71142578 C422.33793972 369.18480915 425.90825692 373.59885003 429.5 378 C434.00759973 383.52339685 438.44842642 389.09184436 442.8359375 394.7109375 C446.33776247 399.18436708 449.90811164 403.59867202 453.5 408 C458.00759973 413.52339685 462.44842642 419.09184436 466.8359375 424.7109375 C470.81416155 429.79294626 474.8776798 434.80306781 478.97070312 439.79296875 C480.01087442 441.06504265 481.03827717 442.34762211 482.05541992 443.63818359 C483.59164726 445.50402958 485.16130568 447.24790903 486.8137207 449.00634766 C495.15184912 458.2106248 496.56131671 465.18726357 496.1875 477.375 C496.18050138 478.82290107 496.17854818 480.27083532 496.18164062 481.71875 C496.17895842 484.85232626 496.14179213 487.98319032 496.08349609 491.11621094 C495.95343878 498.81912718 495.98094622 506.52282407 495.98828125 514.2265625 C495.98916087 515.6903788 495.989991 517.15419512 495.99076843 518.61801147 C495.99284684 522.07867558 495.9960789 525.53933744 496 529 C480.30097315 529.32799023 464.60288049 529.57437171 448.90127182 529.72537041 C441.60944407 529.79736793 434.31975254 529.8953917 427.02929688 530.05615234 C420.66987689 530.19631523 414.3120042 530.28615517 407.95108247 530.31723893 C404.58538342 530.33540084 401.22758893 530.3850554 397.86266327 530.48022079 C375.75354829 531.08039012 375.75354829 531.08039012 369.7467041 525.95928955 C367.05293113 523.11799015 364.93235788 520.06878945 362.98847198 516.67825699 C361.59880775 514.31884393 359.8866119 512.27709251 358.125 510.1875 C357.50109375 509.39859375 356.8771875 508.6096875 356.234375 507.796875 C353.31809753 504.14642977 350.34800987 500.54179867 347.375 496.9375 C346.77445801 496.20942139 346.17391602 495.48134277 345.55517578 494.73120117 C344.31918535 493.23325408 343.08301814 491.73545283 341.84667969 490.23779297 C338.89492821 486.66088207 335.94760376 483.08032894 333 479.5 C329.44204455 475.17916131 325.88368946 470.85865305 322.32421875 466.5390625 C316.6671262 459.67318949 311.01618794 452.80261815 305.38671875 445.9140625 C300.5477141 440.00588333 295.68716472 434.11539756 290.83056641 428.22167969 C287.88632412 424.6483795 284.9432036 421.07415572 282 417.5 C280.83333904 416.08332863 279.66667237 414.66666197 278.5 413.25 C252.83333333 382.08333333 227.16666667 350.91666667 201.5 319.75 C200.92209717 319.0482666 200.34419434 318.3465332 199.7487793 317.62353516 C198.5861588 316.21177011 197.42356102 314.79998636 196.26098633 313.38818359 C193.28260241 309.77136578 190.30378282 306.15490818 187.32421875 302.5390625 C181.6671262 295.67318949 176.01618794 288.80261815 170.38671875 281.9140625 C165.5477141 276.00588333 160.68716472 270.11539756 155.83056641 264.22167969 C152.88632412 260.6483795 149.9432036 257.07415572 147 253.5 C145.83333904 252.08332863 144.66667237 250.66666197 143.5 249.25 C117.83333333 218.08333333 92.16666667 186.91666667 66.5 155.75 C65.92209717 155.0482666 65.34419434 154.3465332 64.7487793 153.62353516 C63.5861588 152.21177011 62.42356102 150.79998636 61.26098633 149.38818359 C58.28260241 145.77136578 55.30378282 142.15490818 52.32421875 138.5390625 C46.6671262 131.67318949 41.01618794 124.80261815 35.38671875 117.9140625 C30.56090507 112.02198884 25.71352564 106.14763058 20.87011719 100.27001953 C18.96745241 97.96049249 17.06563091 95.65027356 15.1640625 93.33984375 C14.53975342 92.5813916 13.91544434 91.82293945 13.2722168 91.04150391 C12.08345292 89.59727048 10.89480617 88.15294064 9.70629883 86.70849609 C9.16255615 86.0480127 8.61881348 85.3875293 8.05859375 84.70703125 C7.35174438 83.84815308 7.35174438 83.84815308 6.63061523 82.97192383 C5.30437545 81.36808511 3.88129735 79.84470875 2.43356323 78.34962463 C-0.48472942 74.82614044 -0.60624837 72.02230684 -0.56762695 67.43408203 C-0.56835709 66.70168808 -0.56908722 65.96929413 -0.56983948 65.21470642 C-0.56637641 62.81163546 -0.52758085 60.41054164 -0.48828125 58.0078125 C-0.47894845 56.33488015 -0.47183454 54.66193408 -0.46684265 52.98898315 C-0.44780934 48.59922133 -0.39874111 44.21029497 -0.34332275 39.82086182 C-0.29205051 35.33641866 -0.26931165 30.85183968 -0.24414062 26.3671875 C-0.19061794 17.57774284 -0.10535075 8.78897554 0 0 Z " fill="#B91B7E" transform="translate(15,9)"/>
<path d="M0 0 C37.29 0 74.58 0 113 0 C118.62362972 13.49671133 118.62362972 13.49671133 120.34570312 18.33276367 C120.93539635 19.98072937 120.93539635 19.98072937 121.53700256 21.6619873 C121.94760422 22.81896118 122.35820587 23.97593506 122.78125 25.16796875 C123.23175165 26.42927988 123.68260312 27.69046611 124.1337738 28.95153809 C125.09271791 31.63312021 126.05006171 34.3152652 127.006073 36.99789429 C129.56940795 44.18926697 132.14499342 51.37625252 134.72265625 58.5625 C134.98504152 59.29417578 135.2474268 60.02585155 135.51776314 60.77969933 C140.90042615 75.78277193 146.40297536 90.7397828 151.9375 105.6875 C158.40128786 123.15115883 164.7587619 140.64532965 170.9546814 158.20574951 C176.57668994 174.12829766 182.38858785 189.97666586 188.25 205.8125 C195.28975752 224.8323752 202.21128265 243.8890867 209 263 C215.70743225 281.88105491 222.54310035 300.70943716 229.5 319.5 C236.45690079 338.29056592 243.2923587 357.1190178 250 376 C256.72988714 394.94286406 263.5860948 413.83402873 270.5625 432.6875 C277.63354315 451.80083764 284.62264691 470.94105338 291.5 490.125 C291.89768585 491.23265717 292.2953717 492.34031433 292.70510864 493.48153687 C293.83679987 496.63536599 294.96583729 499.79013032 296.09375 502.9453125 C296.41681625 503.84608017 296.73988251 504.74684784 297.07273865 505.6749115 C299.83229717 513.41629489 302.39909306 521.19727919 305 529 C264.74 529 224.48 529 183 529 C179.41478793 519.43943449 175.86740331 509.91570041 172.56640625 500.26171875 C171.97464348 498.54057106 171.97464348 498.54057106 171.3709259 496.78465271 C170.53262907 494.34595143 169.69527839 491.90692474 168.85882568 489.46759033 C166.85796417 483.63307099 164.85101416 477.80064892 162.84392548 471.96826935 C162.39317068 470.65835399 161.94249221 469.34841236 161.49188995 468.03844452 C157.48476864 456.38944684 153.4418173 444.75327852 149.375 433.125 C143.93043757 417.55126934 138.51824607 401.9665773 133.125 386.375 C132.36271365 384.17146739 131.60042524 381.96793548 130.83813477 379.7644043 C130.4607164 378.6733992 130.08329803 377.5823941 129.69444275 376.45832825 C129.31703445 375.36735336 128.93962616 374.27637848 128.55078125 373.15234375 C127.98412498 371.51424995 127.98412498 371.51424995 127.40602112 369.84306335 C123.3801107 358.20605021 119.34800001 346.57119087 115.3125 334.9375 C114.95994141 333.92107422 114.60738281 332.90464844 114.24414062 331.85742188 C109.08661996 316.99051369 103.90696127 302.13143957 98.71694946 287.27584839 C92.8619645 270.51251193 87.06481324 253.72938623 81.27304077 236.94412231 C75.72381577 220.86339813 70.14850027 204.79218766 64.53613281 188.73339844 C59.32884524 173.83211173 54.15855163 158.91822374 49 144 C43.22537912 127.30053605 37.42963231 110.60874562 31.60131836 93.927948 C25.44900715 76.31722833 19.34572722 58.68964532 13.25195312 41.05859375 C12.89218384 40.01814911 12.53241455 38.97770447 12.16174316 37.9057312 C11.45732621 35.8681031 10.75345656 33.83028569 10.0501709 31.79226685 C8.35864434 26.89682487 6.65206927 22.00756951 4.9140625 17.12841797 C4.58587524 16.20375229 4.25768799 15.27908661 3.91955566 14.32640076 C3.30243155 12.59079365 2.6814787 10.85654136 2.05603027 9.12391663 C0 3.33365603 0 3.33365603 0 0 Z " fill="#B11C80" transform="translate(1116,9)"/>
<path d="M0 0 C37.62 0 75.24 0 114 0 C120.27 17.49 126.54 34.98 133 53 C136.74836607 63.43809139 140.4975885 73.87586402 144.25 84.3125 C145.21164008 86.98761168 146.17320479 89.66275046 147.13476562 92.33789062 C148.86447557 97.15002612 150.59425236 101.96213757 152.3241272 106.77421379 C155.47180341 115.53028208 158.61886971 124.28656946 161.765625 133.04296875 C162.12070759 134.03104743 162.12070759 134.03104743 162.48296356 135.0390873 C163.67749308 138.36308131 164.87201289 141.68707881 166.06652832 145.01107788 C168.22129642 151.0071743 170.37615087 157.0032397 172.53099823 162.99930763 C173.7290023 166.3328705 174.92700087 169.66643535 176.125 173 C176.60416664 174.33333334 177.08333331 175.66666668 177.5625 177 C180.43749997 184.99999992 180.43749997 184.99999992 181.15625477 187.00001335 C181.63540547 188.33330221 182.11455624 189.66659103 182.59370708 190.99987984 C183.79186859 194.3338935 184.99002888 197.6679076 186.18818665 201.00192261 C188.34151165 206.99379915 190.49484506 212.98567267 192.64822483 218.97752953 C193.84231225 222.30012165 195.03639241 225.62271639 196.23046875 228.9453125 C196.58533891 229.93276144 196.58533891 229.93276144 196.94737816 230.94015884 C200.35984152 240.43560258 203.77188828 249.93119593 207.18370438 259.42687225 C209.39321376 265.5762802 211.60282296 271.72565229 213.8125 277.875 C214.05396759 278.54698425 214.29543518 279.21896851 214.54421997 279.91131592 C221.02370643 297.94295738 227.50806404 315.97283626 234 334 C243.18478754 359.50482168 252.352115 385.01590943 261.51838684 410.52738953 C265.54397867 421.73131368 269.57036683 432.93495152 273.59729004 444.13839722 C276.05088875 450.96474308 278.50403439 457.79125106 280.95605469 464.61816406 C281.88993437 467.21811318 282.82385791 469.81804654 283.7578125 472.41796875 C284.09668236 473.3613378 284.09668236 473.3613378 284.44239807 474.3237648 C287.11536468 481.76429262 289.79330156 489.20299131 292.47993469 496.63859558 C293.82877707 500.3719025 295.17557585 504.10594491 296.52218628 507.84005737 C297.41037732 510.29988428 298.30192787 512.7584756 299.19360352 515.21704102 C299.71128797 516.65243883 300.22879779 518.08789964 300.74609375 519.5234375 C301.18622803 520.73950684 301.6263623 521.95557617 302.07983398 523.20849609 C303 526 303 526 303 528 C267.69 528 232.38 528 196 528 C191.65813209 516.8351968 187.34843464 505.67381183 183.19140625 494.44140625 C182.66234424 493.01519094 182.13315043 491.58902451 181.60383606 490.16290283 C180.49336904 487.17022875 179.38374007 484.17724601 178.27484131 481.18399048 C176.53377335 476.48435479 174.7907406 471.78544934 173.04736328 467.08666992 C171.30166056 462.38139564 169.55603772 457.67609191 167.81109619 452.97053528 C163.34049489 440.91483979 158.86115343 428.86241737 154.375 416.8125 C153.74078828 415.10856706 153.10659223 413.40462829 152.47241211 411.70068359 C150.64852138 406.8003639 148.82430037 401.9001672 147 397 C144.54135491 390.39594935 142.08294044 383.79181295 139.625 377.1875 C139.31020691 376.34168365 138.99541382 375.49586731 138.67108154 374.62442017 C131.48564835 355.31630835 124.31441655 336.00292243 117.1421051 316.68993378 C108.3827197 293.10348726 99.61694541 269.51943871 90.83886719 245.93994141 C87.2203839 236.21972576 83.60402181 226.49872056 79.98718262 216.77789307 C78.97844575 214.06676818 77.96969661 211.35564786 76.9609375 208.64453125 C76.62892334 207.75221802 76.29690918 206.85990479 75.95483398 205.94055176 C74.05584177 200.8370392 72.15645523 195.73367366 70.25665283 190.63046265 C62.06621076 168.62938541 53.88752677 146.62395631 45.71444702 124.61642456 C34.49393215 94.39934124 34.49393215 94.39934124 23.26464844 64.18551636 C22.63544001 62.49344987 22.00636851 60.80133245 21.37744141 59.10916138 C17.83970829 49.59188512 14.28164461 40.08258044 10.69921875 30.58203125 C9.9885042 28.69515772 9.27781055 26.80827632 8.56713867 24.92138672 C7.22087076 21.34733358 5.87019018 17.77499194 4.5168457 14.20361328 C3.91733324 12.61366228 3.31795993 11.0236588 2.71875 9.43359375 C2.4415361 8.70574173 2.1643222 7.97788971 1.87870789 7.22798157 C0 2.22721117 0 2.22721117 0 0 Z " fill="#A41E81" transform="translate(1258,652)"/>
<path d="M0 0 C40.92 0 81.84 0 124 0 C121.99339286 6.68869046 119.91441657 13.19003868 117.46484375 19.70703125 C117.11827225 20.63671722 116.77170074 21.5664032 116.41462708 22.52426147 C115.25885221 25.62157267 114.0982657 28.71705607 112.9375 31.8125 C112.10627169 34.0361493 111.27522199 36.25986537 110.44433594 38.48364258 C101.28983732 62.96420832 92.05892057 87.41619972 82.83498955 111.8706646 C82.4294041 112.94595515 82.4294041 112.94595515 82.015625 114.04296875 C81.74699205 114.7551613 81.47835911 115.46735386 81.20158577 116.20112801 C76.95419123 127.46236139 72.71971086 138.72836294 68.5 150 C61.53623582 168.59941755 54.52716485 187.1817257 47.52099609 205.76519775 C39.82842391 226.16974546 32.15010019 246.57948119 24.5 267 C15.71296611 290.45350716 6.89093875 313.89370762 -1.94555664 337.32861328 C-2.35076113 338.40324766 -2.35076113 338.40324766 -2.76415157 339.49959183 C-3.03510427 340.21817745 -3.30605696 340.93676308 -3.58522034 341.67712402 C-3.9928168 342.75810112 -3.9928168 342.75810112 -4.40864754 343.86091614 C-4.9596637 345.32223494 -5.51069293 346.78354881 -6.06173515 348.24485779 C-10.18293583 359.17421661 -14.29803225 370.10586008 -18.40974998 381.03878975 C-20.21298145 385.8330321 -22.01705939 390.62695601 -23.82114124 395.42087841 C-25.2646915 399.25702488 -26.70765126 403.09339134 -28.14926147 406.93026733 C-29.49276119 410.50601603 -30.8377375 414.08120582 -32.183815 417.65598488 C-32.67608962 418.96414926 -33.16781186 420.27252167 -33.65892792 421.58112144 C-35.98475478 427.77765309 -38.31395007 433.94959911 -41 440 C-58.71741681 437.55849377 -76.83008261 418.88425321 -87.15795898 405.45703125 C-95.50969728 394.14556527 -101.29393049 381.53078712 -105 368 C-105.47759766 366.33904297 -105.47759766 366.33904297 -105.96484375 364.64453125 C-106.91140667 360.78412488 -107.49530167 356.93644288 -108 353 C-108.10635269 352.21341507 -108.21270538 351.42683014 -108.32228088 350.6164093 C-110.95555224 327.56286119 -102.37679563 306.91413096 -94.90917969 285.5369873 C-93.21103947 280.65282975 -91.5537807 275.75489913 -89.89453125 270.85742188 C-87.91351612 265.0186097 -85.92854802 259.18128111 -83.92419434 253.35043335 C-79.39888491 240.18201108 -75.00256197 226.9768524 -70.7109375 213.73046875 C-70.42181614 212.83808817 -70.13269478 211.94570759 -69.83481216 211.02628517 C-68.69674987 207.51194391 -67.55937548 203.99738139 -66.4231739 200.48243809 C-63.71919244 192.1204724 -60.98097703 183.76992204 -58.234375 175.421875 C-57.77883616 174.03654912 -57.32331038 172.65121894 -56.86779785 171.2658844 C-55.96047601 168.5069333 -55.05283431 165.7480877 -54.1449585 162.98931885 C-51.67564381 155.48563382 -49.20898884 147.98107407 -46.7421875 140.4765625 C-46.49547932 139.72608013 -46.24877113 138.97559776 -45.99458694 138.2023735 C-41.63608669 124.94333806 -37.28963372 111.68039291 -32.9510498 98.41482544 C-31.88212704 95.14678961 -30.81272294 91.87891168 -29.74316406 88.61108398 C-26.32379689 78.16319573 -22.90634956 67.7146883 -19.49444008 57.26436234 C-17.54749993 51.30168458 -15.59819588 45.33978231 -13.64743614 39.37835312 C-12.46134797 35.75336761 -11.27639003 32.12802144 -10.09417725 28.50177002 C-8.99061382 25.1167932 -7.88415523 21.73277667 -6.77549362 18.34946632 C-6.17118839 16.50268361 -5.5700056 14.65488009 -4.96890259 12.80705261 C-4.60598114 11.70130386 -4.24305969 10.59555511 -3.86914062 9.45629883 C-3.55481079 8.49411942 -3.24048096 7.53194 -2.91662598 6.54060364 C-2 4 -2 4 0 0 Z " fill="#C2197D" transform="translate(1509,9)"/>
<path d="M0 0 C39.27 0 78.54 0 119 0 C117.65634122 6.04646451 116.28280998 11.42333728 114.0859375 17.1171875 C113.7996196 17.87458725 113.5133017 18.631987 113.2183075 19.41233826 C112.59980855 21.04638686 111.97854492 22.67939123 111.35476685 24.31143188 C110.35008494 26.94019045 109.35268332 29.57161099 108.35717773 32.20385742 C107.30607713 34.98303002 106.25459194 37.76204877 105.20097351 40.54026794 C101.78062101 49.56104355 98.41184102 58.6006598 95.05328369 67.64459229 C94.05423546 70.33475413 93.05434549 73.02460168 92.05419922 75.71435547 C90.70792021 79.33503069 89.36190087 82.95580225 88.01611328 86.57666016 C85.01255163 94.65707859 82.00564861 102.73625369 78.99899292 110.81552124 C77.33252465 115.29362974 75.66627332 119.77181896 74 124.25 C73.33333437 126.04166705 72.66666771 127.83333372 72 129.625 C71.67 130.511875 71.34 131.39875 71 132.3125 C54 178 37 223.6875 20 269.375 C19.66994965 270.26201096 19.33989929 271.14902191 18.99984741 272.06291199 C18.33369103 273.85320598 17.667533 275.64349936 17.00137329 277.43379211 C15.32688553 281.93395558 13.65242733 286.43413004 11.97802734 290.93432617 C9.07143649 298.74613502 6.16474165 306.55790487 3.2567749 314.36920166 C2.02743668 317.67144731 0.79824055 320.97374583 -0.4309082 324.27606201 C-1.05994387 325.96605652 -1.68901284 327.65603863 -2.31811523 329.3460083 C-6.76628402 341.29601318 -11.20668666 353.24888798 -15.64256668 365.20345879 C-16.51050715 367.54241789 -17.37856767 369.8813324 -18.24667358 372.2202301 C-18.53532351 372.9979285 -18.82397343 373.77562689 -19.12137032 374.5768919 C-19.70704154 376.15483143 -20.29271838 377.73276886 -20.8784008 379.31070423 C-22.31925617 383.19283357 -23.75974373 387.07509862 -25.19940186 390.95767212 C-31.39494985 407.66592112 -37.60976564 424.36491524 -44 441 C-63.04045748 437.62453559 -81.88414981 419.77098488 -92.6875 404.8125 C-108.81947914 380.36923285 -115.44310057 352.57365043 -110.51544189 323.46051025 C-108.66967802 314.64958319 -105.30418875 306.15733263 -102.3125 297.6875 C-101.53218173 295.4398671 -100.75331795 293.19172877 -99.97583008 290.94311523 C-97.66995771 284.28854775 -95.33729665 277.64358224 -93 271 C-91.0083778 265.32543491 -89.0196903 259.64984025 -87.03231812 253.9737854 C-86.46483017 252.35405758 -85.8966435 250.73457442 -85.32778931 249.11532593 C-77.69976537 227.38901124 -70.40787415 205.54787603 -63.06602859 183.72370148 C-55.73461409 161.93097414 -48.39054892 140.14757008 -40.75244141 118.45996094 C-36.06727425 105.15376621 -31.57071542 91.79192321 -27.13946533 78.39916992 C-18.44647279 52.14349285 -9.20461448 26.07974102 0 0 Z " fill="#B41C7F" transform="translate(1656,652)"/>
<path d="M0 0 C48.84 0 97.68 0 148 0 C148 44.87854867 148 44.87854867 147.83227539 62.71948242 C147.81405668 64.79800295 147.79598036 66.87652474 147.7780304 68.95504761 C147.73007292 74.45239277 147.67992206 79.94971549 147.62907338 85.4470346 C147.59717474 88.907708 147.56579188 92.36838571 147.53457451 95.82906532 C147.42501258 107.97338173 147.31362615 120.11767974 147.20043945 132.26196289 C147.09597363 143.47581386 146.99563123 154.6896967 146.89716727 165.90360183 C146.81150021 175.63895298 146.72291867 185.37427491 146.63215441 195.10957986 C146.5784225 200.87786635 146.52577787 206.64615706 146.4761219 212.41448021 C146.27528639 235.62275374 146.07173849 258.81239652 145 282 C137.99962659 275.02691569 131.64440667 267.62791081 125.421875 259.95703125 C122.796744 256.75183098 120.12307174 253.59199576 117.4375 250.4375 C113.56438285 245.88370962 109.79376808 241.2650432 106.08203125 236.578125 C103.66915908 233.59032832 101.18203921 230.66943803 98.6875 227.75 C94.88256036 223.29361056 91.21197521 218.75831196 87.625 214.125 C83.73597357 209.10735225 79.68819813 204.27040572 75.5 199.5 C70.88208484 194.23622732 66.45491341 188.87278308 62.1640625 183.33984375 C58.67304347 178.83985968 55.10327082 174.41051767 51.5 170 C46.99207873 164.47687052 42.55156808 158.9081486 38.1640625 153.2890625 C34.66223441 148.81562892 31.0917156 144.40147271 27.5 140 C15.74570699 125.58631767 15.74570699 125.58631767 11.63383484 120.02087402 C9.95567376 117.86133483 9.95567376 117.86133483 7.56111145 115.64025879 C-2.2481594 105.18010121 -1.30388488 94.48106724 -0.9765625 80.76171875 C-0.96183098 78.6900095 -0.95164687 76.61826284 -0.94604492 74.54650879 C-0.89394695 66.92626583 -0.75433313 59.30682345 -0.625 51.6875 C-0.41875 34.630625 -0.2125 17.57375 0 0 Z " fill="#D8167A" transform="translate(398,9)"/>
<path d="M0 0 C0.66 0 1.32 0 2 0 C3.671875 1.80859375 3.671875 1.80859375 5.75 4.4375 C6.55179688 5.43910156 7.35359375 6.44070313 8.1796875 7.47265625 C8.62666992 8.03355957 9.07365234 8.59446289 9.53417969 9.17236328 C12.28264655 12.59924918 15.08114967 15.98509789 17.875 19.375 C18.47497803 20.10404541 19.07495605 20.83309082 19.69311523 21.58422852 C23.80964734 26.57879134 27.97124672 31.53246993 32.16308594 36.46386719 C37.25455119 42.46115279 42.20987245 48.56754093 47.171875 54.671875 C50.73716916 59.04631393 54.32564286 63.39532319 57.98876953 67.68798828 C62.75926652 73.2784932 67.36512047 78.96586106 71.87451172 84.76879883 C74.99106333 88.76212259 78.20533349 92.65271371 81.5 96.5 C85.71114628 101.42145113 89.75562971 106.44796403 93.734375 111.55859375 C97.26536456 116.08703799 100.86805258 120.55222679 104.5 125 C109.00777649 130.52325006 113.44842939 136.09184817 117.8359375 141.7109375 C121.81416155 146.79294626 125.8776798 151.80306781 129.97070312 156.79296875 C130.9875931 158.03657083 131.98850814 159.29337407 132.97465515 160.56149292 C135.03139313 163.1178635 135.03139313 163.1178635 137.71333313 165.6880188 C146.06074173 174.35894442 147.3613113 181.80056855 147.24475098 193.60961914 C147.18939248 195.67468229 147.13256211 197.73970653 147.07421875 199.8046875 C147.05800702 201.73637389 147.04680886 203.66810892 147.04064941 205.59985352 C146.98342266 212.69231507 146.82984749 219.78373615 146.6875 226.875 C146.3471875 250.696875 146.3471875 250.696875 146 275 C97.49 275 48.98 275 -1 275 C-0.67 184.25 -0.34 93.5 0 0 Z " fill="#912184" transform="translate(15,263)"/>
<path d="M0 0 C2.52623177 -0.36914349 2.52623177 -0.36914349 5.78323364 -0.36076355 C7.63005737 -0.36694954 7.63005737 -0.36694954 9.51419067 -0.3732605 C10.88592746 -0.36264237 12.25766206 -0.35173794 13.62939453 -0.34057617 C15.06809471 -0.33973032 16.50679618 -0.34020422 17.94549561 -0.34190369 C21.85858822 -0.34276671 25.77140664 -0.32509156 29.68443537 -0.30418181 C33.77104469 -0.28546598 37.85765985 -0.28366861 41.94430542 -0.28010559 C49.68623009 -0.2707701 57.42802813 -0.24613607 65.16989696 -0.21605712 C75.62914861 -0.17630002 86.08843473 -0.16007038 96.54774284 -0.14255047 C113.03192347 -0.11431596 129.51583683 -0.05455656 146 0 C146 31.02 146 62.04 146 94 C92.21 94 38.42 94 -17 94 C-17 64.83129058 -17 64.83129058 -15.8125 55.75 C-15.6794043 54.68193115 -15.54630859 53.6138623 -15.40917969 52.51342773 C-13.13741727 35.42819888 -9.73890773 14.6083616 0 0 Z " fill="#A81D81" transform="translate(1039,866)"/>
<path d="M0 0 C3.88383075 1.97722293 6.99050561 4.08677409 9 8 C10.28975494 12.71975538 10.48693893 16.75685917 8.5625 21.3125 C6.45013554 24.92956243 4.06685984 26.83532111 0.2109375 28.43359375 C-3.75721671 29.45017036 -7.12458272 29.33802421 -11 28 C-14.30661311 25.86769809 -17.22256749 23.55486502 -19 20 C-19.52657873 14.71694786 -19.64191122 10.33137143 -17.3125 5.5 C-12.15021912 -0.08084419 -7.43540612 -1.08433006 0 0 Z " fill="#7A2378" transform="translate(712,324)"/>
<path d="M0 0 C4.64425866 2.49413891 8.31375022 4.94125067 10 10 C10.54885106 14.7237181 10.46596728 18.10134882 8.25 22.375 C4.2649683 27.02420365 1.49765025 28.62828793 -4.6171875 29.1328125 C-9.46864864 28.86240319 -13.4318488 26.72569911 -16.671875 23.16015625 C-18.99871012 19.37562736 -19.1106394 15.37025642 -19 11 C-17.40729056 6.22187167 -15.10647987 3.8429476 -11 1 C-7.53120524 -0.73439738 -3.79267767 -0.47248846 0 0 Z " fill="#912184" transform="translate(994,312)"/>
<path d="M0 0 C4.64425866 2.49413891 8.31375022 4.94125067 10 10 C10.54885106 14.7237181 10.46596728 18.10134882 8.25 22.375 C4.2649683 27.02420365 1.49765025 28.62828793 -4.6171875 29.1328125 C-9.46864864 28.86240319 -13.4318488 26.72569911 -16.671875 23.16015625 C-18.99871012 19.37562736 -19.1106394 15.37025642 -19 11 C-17.40729056 6.22187167 -15.10647987 3.8429476 -11 1 C-7.53120524 -0.73439738 -3.79267767 -0.47248846 0 0 Z " fill="#DA157A" transform="translate(941,94)"/>
<path d="M0 0 C3.91259565 2.43450396 6.33867368 4.32852105 7.8125 8.75 C8.22360876 12.97177069 8.28793683 16.62396541 6.625 20.5625 C3.29501394 24.5814487 0.65645174 26.86205355 -4.5625 27.6875 C-9.12704822 27.99129689 -12.22422154 27.15905162 -16.1875 24.75 C-19.93386866 20.5106881 -21.45833978 16.3509667 -21.1875 10.75 C-19.62457876 5.54026255 -17.75027803 2.71580572 -13.1875 -0.25 C-8.46564921 -1.82395026 -4.65153281 -1.82413051 0 0 Z " fill="#B81B7F" transform="translate(728.1875,209.25)"/>
<path d="M0 0 C4.40608743 2.16298837 7.1987497 4.39680479 9 9 C9.68426057 14.04325384 9.5739862 17.83076884 7.3125 22.4375 C3.32963985 26.85093962 0.54731725 28.19792507 -5.375 28.5625 C-10.30570137 28.40280117 -13.21860964 27.44184979 -16.6875 23.90625 C-19.88886458 19.25664906 -20.23059741 14.72948057 -19.5 9.25 C-15.61292793 0.82801052 -8.65875755 -0.9576506 0 0 Z " fill="#BB1A7E" transform="translate(1010,204)"/>
<path d="M0 0 C4.40608743 2.16298837 7.1987497 4.39680479 9 9 C9.54208681 13.56256401 9.55969228 17.5696753 7.875 21.875 C4.85897657 25.29315988 2.22938686 27.64112309 -2.40234375 28.38671875 C-8.07542133 28.63411612 -11.6480927 27.92733098 -16 24 C-19.38570467 20.16286804 -19.51291172 16.36598538 -19.3515625 11.4375 C-18.67904883 6.77473854 -16.30117669 4.14809708 -12.875 1.125 C-8.55651358 -0.56484251 -4.5732948 -0.65960983 0 0 Z " fill="#6B2789" transform="translate(793,404)"/>
<path d="M0 0 C3.23939656 1.73539102 5.42321134 3.42321134 8 6 C8.6875 9.5625 8.6875 9.5625 9 13 C8 14 8 14 5.49975586 14.11352539 C4.41573486 14.10828857 3.33171387 14.10305176 2.21484375 14.09765625 C1.04501953 14.09443359 -0.12480469 14.09121094 -1.33007812 14.08789062 C-3.17762695 14.07532227 -3.17762695 14.07532227 -5.0625 14.0625 C-6.91584961 14.05573242 -6.91584961 14.05573242 -8.80664062 14.04882812 C-11.87114117 14.03699608 -14.93554721 14.02051173 -18 14 C-18.21875 7.3515625 -18.21875 7.3515625 -16.25 4.1875 C-11.42244564 -0.50595563 -6.50719769 -0.86215238 0 0 Z " fill="#86267F" transform="translate(712,324)"/>
</svg>
